<?xml version="1.0" encoding="UTF-8"?>
<svg width="499px" height="61px" viewBox="0 0 499 61" version="1.1" xmlns="http://www.w3.org/2000/svg" xmlns:xlink="http://www.w3.org/1999/xlink">
    <!-- Generator: Sketch 50.2 (55047) - http://www.bohemiancoding.com/sketch -->
    <title>Martin Zähringer</title>
    <desc>Created with Sketch.</desc>
    <defs></defs>
    <g id="Page-1" stroke="none" stroke-width="1" fill="none" fill-rule="evenodd">
        <g id="Facebook-/-Meta-Image" transform="translate(-85.000000, -96.000000)" fill="#000A12">
            <path d="M125.632,103.936 L125.504,103.936 L110.656,144 L106.176,144 L91.328,103.936 L91.2,103.936 L91.2,144 L85.952,144 L85.952,98.304 L94.464,98.304 L108.544,136.832 L108.672,136.832 L122.752,98.304 L130.944,98.304 L130.944,144 L125.632,144 L125.632,103.936 Z M167.616,144 L162.304,144 C161.984,142.272 161.728,140.288 161.728,138.56 C160.384,142.336 155.968,144.704 150.528,144.704 C144.384,144.704 140.096,141.056 140.096,135.488 C140.096,129.92 143.808,126.656 151.232,125.824 L161.6,124.48 L161.6,122.624 C161.6,117.952 158.912,115.328 154.048,115.328 C149.76,115.328 147.136,117.504 146.688,121.28 L141.568,121.28 C142.144,114.944 147.072,111.04 154.176,111.04 C162.368,111.04 166.848,115.072 166.848,122.496 L166.848,137.28 C166.848,140.288 167.104,142.208 167.616,144 Z M145.472,135.36 C145.472,138.624 147.84,140.672 151.616,140.672 C157.312,140.672 161.6,136.896 161.6,131.328 L161.6,128.448 L152.832,129.408 C147.264,130.176 145.472,131.968 145.472,135.36 Z M193.28,111.104 C194.24,111.104 195.072,111.168 195.776,111.36 L195.776,116.224 C195.072,116.032 194.048,115.968 193.024,115.968 C187.328,115.968 183.232,120.704 183.232,128.128 L183.232,144 L177.92,144 L177.92,111.808 L183.04,111.808 L183.04,119.424 C184.384,114.304 188.352,111.104 193.28,111.104 Z M212.864,140.032 C214.4,140.032 215.808,139.776 217.536,139.264 L217.536,143.616 C215.488,144.192 213.696,144.512 211.904,144.512 C205.952,144.512 203.008,141.632 203.008,135.744 L203.008,115.84 L198.272,115.84 L198.272,111.808 L203.008,111.808 L203.008,103.616 L208.256,103.616 L208.256,111.808 L216.704,111.808 L216.704,115.84 L208.192,115.84 L208.192,135.488 C208.192,138.624 209.6,140.032 212.864,140.032 Z M231.808,98.624 L231.808,105.088 L225.792,105.088 L225.792,98.624 L231.808,98.624 Z M231.488,111.808 L231.488,144 L226.176,144 L226.176,111.808 L231.488,111.808 Z M242.88,144 L242.88,111.808 L248,111.808 L248,117.696 C249.536,113.664 253.632,111.04 258.496,111.04 C265.728,111.04 270.016,115.584 270.016,123.264 L270.016,144 L264.704,144 L264.704,124.416 C264.704,118.464 262.08,115.392 257.024,115.392 C251.456,115.392 248.192,119.296 248.192,126.272 L248.192,144 L242.88,144 Z M293.632,98.304 L328.128,98.304 L328.128,102.656 L299.712,139.392 L328.32,139.392 L328.32,144 L292.672,144 L292.672,140.096 L321.216,102.912 L293.632,102.912 L293.632,98.304 Z M362.624,144 L357.312,144 C356.992,142.272 356.736,140.288 356.736,138.56 C355.392,142.336 350.976,144.704 345.536,144.704 C339.392,144.704 335.104,141.056 335.104,135.488 C335.104,129.92 338.816,126.656 346.24,125.824 L356.608,124.48 L356.608,122.624 C356.608,117.952 353.92,115.328 349.056,115.328 C344.768,115.328 342.144,117.504 341.696,121.28 L336.576,121.28 C337.152,114.944 342.08,111.04 349.184,111.04 C357.376,111.04 361.856,115.072 361.856,122.496 L361.856,137.28 C361.856,140.288 362.112,142.208 362.624,144 Z M340.48,135.36 C340.48,138.624 342.848,140.672 346.624,140.672 C352.32,140.672 356.608,136.896 356.608,131.328 L356.608,128.448 L347.84,129.408 C342.272,130.176 340.48,131.968 340.48,135.36 Z M357.952,98.624 L357.952,105.088 L352.512,105.088 L352.512,98.624 L357.952,98.624 Z M346.24,98.624 L346.24,105.088 L340.864,105.088 L340.864,98.624 L346.24,98.624 Z M372.928,96.896 L378.24,96.896 L378.24,117.696 C379.776,113.536 383.68,111.04 388.544,111.04 C395.776,111.04 400.064,115.584 400.064,123.264 L400.064,144 L394.752,144 L394.752,124.416 C394.752,118.464 392.128,115.392 387.072,115.392 C381.504,115.392 378.24,119.296 378.24,126.272 L378.24,144 L372.928,144 L372.928,96.896 Z M426.496,111.104 C427.456,111.104 428.288,111.168 428.992,111.36 L428.992,116.224 C428.288,116.032 427.264,115.968 426.24,115.968 C420.544,115.968 416.448,120.704 416.448,128.128 L416.448,144 L411.136,144 L411.136,111.808 L416.256,111.808 L416.256,119.424 C417.6,114.304 421.568,111.104 426.496,111.104 Z M441.408,98.624 L441.408,105.088 L435.392,105.088 L435.392,98.624 L441.408,98.624 Z M441.088,111.808 L441.088,144 L435.776,144 L435.776,111.808 L441.088,111.808 Z M452.48,144 L452.48,111.808 L457.6,111.808 L457.6,117.696 C459.136,113.664 463.232,111.04 468.096,111.04 C475.328,111.04 479.616,115.584 479.616,123.264 L479.616,144 L474.304,144 L474.304,124.416 C474.304,118.464 471.68,115.392 466.624,115.392 C461.056,115.392 457.792,119.296 457.792,126.272 L457.792,144 L452.48,144 Z M503.296,152.064 C509.76,152.064 513.216,148.544 513.216,141.952 L513.216,137.216 C511.424,140.992 507.392,143.424 502.528,143.424 C498.24,143.424 494.848,141.952 492.224,138.944 C489.6,136 488.256,132.096 488.256,127.168 C488.256,122.368 489.6,118.528 492.288,115.52 C494.912,112.512 498.368,111.04 502.528,111.04 C507.328,111.04 511.552,113.6 513.408,117.44 L513.408,111.808 L518.592,111.808 L518.592,141.568 C518.592,150.848 512.896,156.16 503.36,156.16 C495.424,156.16 490.368,152.832 489.088,146.752 L494.464,146.752 C495.424,150.336 498.24,152.064 503.296,152.064 Z M503.488,139.2 C509.44,139.2 513.6,134.592 513.6,127.936 L513.6,126.4 C513.6,119.744 509.44,115.2 503.488,115.2 C497.344,115.2 493.504,119.808 493.504,127.168 C493.504,134.528 497.344,139.2 503.488,139.2 Z M551.424,134.528 L556.416,134.528 C555.072,140.928 549.952,144.768 543.104,144.768 C538.432,144.768 534.72,143.232 531.904,140.224 C529.024,137.216 527.616,133.12 527.616,128.064 C527.616,123.008 529.024,118.848 531.904,115.712 C534.72,112.576 538.368,111.04 542.784,111.04 C547.072,111.04 550.4,112.512 552.896,115.392 C555.392,118.336 556.608,122.176 556.608,126.912 L556.608,129.024 L532.8,129.024 C533.056,136.384 536.896,140.544 543.104,140.544 C547.264,140.544 550.08,138.56 551.424,134.528 Z M542.784,115.328 C537.408,115.328 533.824,118.976 532.992,125.184 L551.424,125.184 C551.232,119.04 548.096,115.328 542.784,115.328 Z M580.992,111.104 C581.952,111.104 582.784,111.168 583.488,111.36 L583.488,116.224 C582.784,116.032 581.76,115.968 580.736,115.968 C575.04,115.968 570.944,120.704 570.944,128.128 L570.944,144 L565.632,144 L565.632,111.808 L570.752,111.808 L570.752,119.424 C572.096,114.304 576.064,111.104 580.992,111.104 Z" id="Martin-Zähringer"></path>
        </g>
    </g>
</svg>